<svg width="71" height="60" viewBox="0 0 71 60" fill="none" xmlns="http://www.w3.org/2000/svg">
<g clip-path="url(#clip0_13_107)">
<path d="M70.1923 30C70.1923 13.4315 54.4792 0 35.0962 0C15.7131 0 0 13.4315 0 30C0 46.5685 15.7131 60 35.0962 60C54.4792 60 70.1923 46.5685 70.1923 30Z" fill="#CBAAEC"/>
<path d="M24.6982 43.9999V17.8181H33.5448C35.5988 17.8181 37.2778 18.1889 38.5818 18.9303C39.8943 19.6633 40.8659 20.6562 41.4965 21.909C42.1272 23.1619 42.4426 24.5596 42.4426 26.1022C42.4426 27.6448 42.1272 29.0468 41.4965 30.3082C40.8744 31.5695 39.9113 32.5752 38.6073 33.3252C37.3034 34.0667 35.6329 34.4374 33.596 34.4374H27.2551V31.6249H33.4937C34.8999 31.6249 36.0292 31.382 36.8815 30.8962C37.7338 30.4104 38.3517 29.7542 38.7352 28.9275C39.1272 28.0923 39.3232 27.1505 39.3232 26.1022C39.3232 25.0539 39.1272 24.1164 38.7352 23.2897C38.3517 22.463 37.7295 21.8153 36.8687 21.3465C36.0079 20.8693 34.8659 20.6306 33.4426 20.6306H27.8687V43.9999H24.6982Z" fill="#C06A58"/>
</g>
<defs>
<clipPath id="clip0_13_107">
<rect width="70.1923" height="60" fill="white"/>
</clipPath>
</defs>
</svg>
