<svg width="1185" height="821" viewBox="0 0 1185 821" fill="none" xmlns="http://www.w3.org/2000/svg">
<path fill-rule="evenodd" clip-rule="evenodd" d="M1185 0C1185 0 1185 635.265 1185 730.851C1150.19 740.312 1108.67 717.981 1072.5 727.323C1036.65 736.58 1005.18 779.173 967.849 786.646C931.622 793.897 890.807 765.834 853.322 771.323C816.812 776.667 782.5 815.782 744.925 819.378C708.214 822.892 669.396 790.819 631.784 792.593C594.946 794.329 558.236 830 520.646 830C483.058 830 446.356 794.329 409.517 792.593C371.911 790.819 333.093 822.893 296.385 819.38C258.811 815.784 224.494 776.668 187.987 771.325C150.502 765.837 109.689 793.899 73.4633 786.649C36.1291 779.176 4.65266 736.584 -31.1949 727.326C-68.3004 717.745 -111.029 741.095 -146.378 729.699C-182.886 717.93 -210.66 672.356 -245 658.277C-245 624.461 -245 0 -245 0H1185Z" fill="#F5F2EB"/>
</svg>
