<svg width="219" height="60" viewBox="0 0 219 60" fill="none" xmlns="http://www.w3.org/2000/svg">
<g clip-path="url(#clip0_3_595)">
<mask id="mask0_3_595" style="mask-type:luminance" maskUnits="userSpaceOnUse" x="0" y="0" width="219" height="60">
<path d="M219 0H0V60H219V0Z" fill="white"/>
</mask>
<g mask="url(#mask0_3_595)">
<path d="M70.1923 30C70.1923 13.4315 54.4792 0 35.0962 0C15.7131 0 0 13.4315 0 30C0 46.5685 15.7131 60 35.0962 60C54.4792 60 70.1923 46.5685 70.1923 30Z" fill="#CBAAEC"/>
<path d="M24.6982 43.9999V17.8181H33.5448C35.5988 17.8181 37.2778 18.1889 38.5818 18.9303C39.8943 19.6633 40.8659 20.6562 41.4965 21.909C42.1272 23.1619 42.4426 24.5596 42.4426 26.1022C42.4426 27.6448 42.1272 29.0468 41.4965 30.3082C40.8744 31.5695 39.9113 32.5752 38.6073 33.3252C37.3034 34.0667 35.6329 34.4374 33.596 34.4374H27.2551V31.6249H33.4937C34.8999 31.6249 36.0292 31.382 36.8815 30.8962C37.7338 30.4104 38.3517 29.7542 38.7352 28.9275C39.1272 28.0923 39.3232 27.1505 39.3232 26.1022C39.3232 25.0539 39.1272 24.1164 38.7352 23.2897C38.3517 22.463 37.7295 21.8153 36.8687 21.3465C36.0079 20.8693 34.8659 20.6306 33.4426 20.6306H27.8687V43.9999H24.6982Z" fill="#C06A58"/>
</g>
<path d="M190.969 37.0245C192.569 37.0245 193.369 36.4805 193.369 35.3925C193.369 34.9285 193.225 34.5605 192.937 34.2885C192.649 34.0165 192.121 33.7845 191.353 33.5925L190.033 33.2565C189.057 33.0165 188.329 32.6005 187.849 32.0085C187.369 31.4005 187.129 30.6805 187.129 29.8485C187.129 29.2405 187.265 28.6805 187.537 28.1685C187.809 27.6405 188.241 27.2165 188.833 26.8965C189.425 26.5765 190.193 26.4165 191.137 26.4165C191.745 26.4165 192.361 26.4885 192.985 26.6325C193.625 26.7605 194.273 26.9845 194.929 27.3045L194.305 28.9605C193.137 28.4325 192.081 28.1685 191.137 28.1685C189.745 28.1685 189.049 28.6885 189.049 29.7285C189.049 30.1285 189.177 30.4725 189.433 30.7605C189.689 31.0485 190.169 31.2805 190.873 31.4565L192.193 31.7925C193.249 32.0485 194.025 32.4645 194.521 33.0405C195.017 33.6165 195.265 34.3605 195.265 35.2725C195.265 35.9285 195.121 36.5285 194.833 37.0725C194.561 37.6005 194.113 38.0165 193.489 38.3205C192.881 38.6245 192.057 38.7765 191.017 38.7765C190.329 38.7765 189.641 38.7045 188.953 38.5605C188.281 38.4165 187.585 38.1845 186.865 37.8645L187.393 36.2325C188.081 36.5045 188.705 36.7045 189.265 36.8325C189.825 36.9605 190.393 37.0245 190.969 37.0245Z" fill="black"/>
<path d="M183.198 38.5366L179.862 33.0406C179.558 33.3446 179.238 33.6566 178.902 33.9766C178.566 34.2966 178.214 34.6166 177.846 34.9366V38.5366H175.878V20.7766H177.846V32.7286C178.886 31.7206 179.806 30.7366 180.606 29.7766C181.422 28.8166 182.166 27.7766 182.838 26.6566H185.094C184.518 27.6166 183.926 28.5046 183.318 29.3206C182.726 30.1206 182.054 30.9366 181.302 31.7686L185.574 38.5366H183.198Z" fill="black"/>
<path d="M173.305 28.3845C172.585 28.3845 171.881 28.5125 171.193 28.7685C170.521 29.0245 169.801 29.5125 169.033 30.2325V38.5365H167.065V26.6565H168.937V28.5765C169.753 27.7765 170.497 27.2165 171.169 26.8965C171.857 26.5765 172.569 26.4165 173.305 26.4165V28.3845Z" fill="black"/>
<path d="M163.489 31.8645V33.3045C163.489 35.0005 163.049 36.3365 162.169 37.3125C161.305 38.2885 160.065 38.7765 158.449 38.7765C156.849 38.7765 155.609 38.2885 154.729 37.3125C153.849 36.3365 153.409 35.0005 153.409 33.3045V31.8645C153.409 30.2005 153.841 28.8805 154.705 27.9045C155.585 26.9125 156.833 26.4165 158.449 26.4165C160.065 26.4165 161.305 26.9125 162.169 27.9045C163.049 28.8805 163.489 30.2005 163.489 31.8645ZM161.449 31.8645C161.449 30.7285 161.193 29.8405 160.681 29.2005C160.169 28.5445 159.425 28.2165 158.449 28.2165C157.489 28.2165 156.745 28.5445 156.217 29.2005C155.705 29.8405 155.449 30.7285 155.449 31.8645V33.3045C155.449 34.4885 155.705 35.4005 156.217 36.0405C156.745 36.6805 157.489 37.0005 158.449 37.0005C159.425 37.0005 160.169 36.6805 160.681 36.0405C161.193 35.4005 161.449 34.4885 161.449 33.3045V31.8645Z" fill="black"/>
<path d="M151.323 26.6565L148.275 38.5365H145.995L143.499 28.7925L140.931 38.5365H138.651L135.627 26.6565H137.643L138.843 31.6245L139.923 36.5445L142.491 26.6565H144.579L147.147 36.5925L148.203 31.6485L149.379 26.6565H151.323Z" fill="black"/>
<path d="M133.446 33.3046C133.446 34.9686 133.03 36.2966 132.198 37.2886C131.366 38.2806 130.142 38.7766 128.526 38.7766C126.926 38.7766 125.342 38.3526 123.774 37.5046V20.7766H125.742V28.2646C126.462 27.5926 127.118 27.1206 127.71 26.8486C128.318 26.5606 128.934 26.4166 129.558 26.4166C130.806 26.4166 131.766 26.8966 132.438 27.8566C133.11 28.8166 133.446 30.1686 133.446 31.9126V33.3046ZM129.078 28.2646C128.63 28.2646 128.15 28.3846 127.638 28.6246C127.142 28.8646 126.51 29.3606 125.742 30.1126V36.4006C126.686 36.8006 127.574 37.0006 128.406 37.0006C129.478 37.0006 130.246 36.6726 130.71 36.0166C131.174 35.3446 131.406 34.4406 131.406 33.3046V31.9126C131.406 30.6646 131.214 29.7446 130.83 29.1526C130.446 28.5606 129.862 28.2646 129.078 28.2646Z" fill="black"/>
<path d="M120.369 37.8405C119.649 38.1925 118.929 38.4325 118.209 38.5605C117.489 38.7045 116.825 38.7765 116.217 38.7765C114.505 38.7765 113.225 38.2885 112.377 37.3125C111.545 36.3365 111.129 35.0005 111.129 33.3045V31.8645C111.129 30.2165 111.545 28.8965 112.377 27.9045C113.225 26.9125 114.417 26.4165 115.953 26.4165C116.769 26.4165 117.513 26.5845 118.185 26.9205C118.873 27.2405 119.417 27.7365 119.817 28.4085C120.233 29.0645 120.441 29.9125 120.441 30.9525C120.441 31.6245 120.345 32.3925 120.153 33.2565H113.073V33.3045C113.073 34.5205 113.321 35.4405 113.817 36.0645C114.329 36.6885 115.145 37.0005 116.265 37.0005C116.777 37.0005 117.337 36.9365 117.945 36.8085C118.569 36.6805 119.177 36.4805 119.769 36.2085L120.369 37.8405ZM115.953 28.1445C115.025 28.1445 114.321 28.4485 113.841 29.0565C113.377 29.6485 113.121 30.4885 113.073 31.5765H118.449C118.497 31.2885 118.521 31.0165 118.521 30.7605C118.521 29.8645 118.265 29.2085 117.753 28.7925C117.257 28.3605 116.657 28.1445 115.953 28.1445Z" fill="black"/>
<path d="M93.6908 29.1286L94.8428 35.7286L98.6108 22.2166H100.555L104.323 35.6566L105.523 29.1286L106.939 22.2166H109.003L105.403 38.5366H103.291L99.5468 25.1926L95.8028 38.5366H93.6668L90.0908 22.2166H92.2748L93.6908 29.1286Z" fill="black"/>
</g>
<defs>
<clipPath id="clip0_3_595">
<rect width="219" height="60" fill="white"/>
</clipPath>
</defs>
</svg>
