<svg width="219" height="59" viewBox="0 0 219 59" fill="none" xmlns="http://www.w3.org/2000/svg">
<g clip-path="url(#clip0_5_2219)">
<mask id="mask0_5_2219" style="mask-type:luminance" maskUnits="userSpaceOnUse" x="0" y="-1" width="219" height="60">
<path d="M219 -1H0V59H219V-1Z" fill="white"/>
</mask>
<g mask="url(#mask0_5_2219)">
<path d="M70.1923 29C70.1923 12.4315 54.4792 -1 35.0962 -1C15.7131 -1 0 12.4315 0 29C0 45.5685 15.7131 59 35.0962 59C54.4792 59 70.1923 45.5685 70.1923 29Z" fill="#CBAAEC"/>
</g>
<path d="M24.6984 43V16.8182H33.545C35.5989 16.8182 37.2779 17.1889 38.5819 17.9304C39.8944 18.6634 40.866 19.6562 41.4967 20.9091C42.1274 22.1619 42.4427 23.5597 42.4427 25.1023C42.4427 26.6449 42.1274 28.0469 41.4967 29.3082C40.8745 30.5696 39.9114 31.5753 38.6075 32.3253C37.3035 33.0668 35.633 33.4375 33.5961 33.4375H27.2552V30.625H33.4938C34.9001 30.625 36.0293 30.3821 36.8816 29.8963C37.7339 29.4105 38.3518 28.7543 38.7353 27.9276C39.1274 27.0923 39.3234 26.1506 39.3234 25.1023C39.3234 24.054 39.1274 23.1165 38.7353 22.2898C38.3518 21.4631 37.7296 20.8153 36.8688 20.3466C36.008 19.8693 34.866 19.6307 33.4427 19.6307H27.8688V43H24.6984Z" fill="#C06A58"/>
<path d="M93.6906 28.1286L94.8426 34.7286L98.6106 21.2166H100.555L104.323 34.6566L105.523 28.1286L106.939 21.2166H109.003L105.403 37.5366H103.291L99.5466 24.1926L95.8026 37.5366H93.6666L90.0906 21.2166H92.2746L93.6906 28.1286ZM120.369 36.8406C119.649 37.1926 118.929 37.4326 118.209 37.5606C117.489 37.7046 116.825 37.7766 116.217 37.7766C114.505 37.7766 113.225 37.2886 112.377 36.3126C111.545 35.3366 111.129 34.0006 111.129 32.3046V30.8646C111.129 29.2166 111.545 27.8966 112.377 26.9046C113.225 25.9126 114.417 25.4166 115.953 25.4166C116.769 25.4166 117.513 25.5846 118.185 25.9206C118.873 26.2406 119.417 26.7366 119.817 27.4086C120.233 28.0646 120.441 28.9126 120.441 29.9526C120.441 30.6246 120.345 31.3926 120.153 32.2566H113.073V32.3046C113.073 33.5206 113.321 34.4406 113.817 35.0646C114.329 35.6886 115.145 36.0006 116.265 36.0006C116.777 36.0006 117.337 35.9366 117.945 35.8086C118.569 35.6806 119.177 35.4806 119.769 35.2086L120.369 36.8406ZM115.953 27.1446C115.025 27.1446 114.321 27.4486 113.841 28.0566C113.377 28.6486 113.121 29.4886 113.073 30.5766H118.449C118.497 30.2886 118.521 30.0166 118.521 29.7606C118.521 28.8646 118.265 28.2086 117.753 27.7926C117.257 27.3606 116.657 27.1446 115.953 27.1446ZM133.446 32.3046C133.446 33.9686 133.03 35.2966 132.198 36.2886C131.366 37.2806 130.142 37.7766 128.526 37.7766C126.926 37.7766 125.342 37.3526 123.774 36.5046V19.7766H125.742V27.2646C126.462 26.5926 127.118 26.1206 127.71 25.8486C128.318 25.5606 128.934 25.4166 129.558 25.4166C130.806 25.4166 131.766 25.8966 132.438 26.8566C133.11 27.8166 133.446 29.1686 133.446 30.9126V32.3046ZM129.078 27.2646C128.63 27.2646 128.15 27.3846 127.638 27.6246C127.142 27.8646 126.51 28.3606 125.742 29.1126V35.4006C126.686 35.8006 127.574 36.0006 128.406 36.0006C129.478 36.0006 130.246 35.6726 130.71 35.0166C131.174 34.3446 131.406 33.4406 131.406 32.3046V30.9126C131.406 29.6646 131.214 28.7446 130.83 28.1526C130.446 27.5606 129.862 27.2646 129.078 27.2646ZM151.323 25.6566L148.275 37.5366H145.995L143.499 27.7926L140.931 37.5366H138.651L135.627 25.6566H137.643L138.843 30.6246L139.923 35.5446L142.491 25.6566H144.579L147.147 35.5926L148.203 30.6486L149.379 25.6566H151.323ZM163.489 30.8646V32.3046C163.489 34.0006 163.049 35.3366 162.169 36.3126C161.305 37.2886 160.065 37.7766 158.449 37.7766C156.849 37.7766 155.609 37.2886 154.729 36.3126C153.849 35.3366 153.409 34.0006 153.409 32.3046V30.8646C153.409 29.2006 153.841 27.8806 154.705 26.9046C155.585 25.9126 156.833 25.4166 158.449 25.4166C160.065 25.4166 161.305 25.9126 162.169 26.9046C163.049 27.8806 163.489 29.2006 163.489 30.8646ZM161.449 30.8646C161.449 29.7286 161.193 28.8406 160.681 28.2006C160.169 27.5446 159.425 27.2166 158.449 27.2166C157.489 27.2166 156.745 27.5446 156.217 28.2006C155.705 28.8406 155.449 29.7286 155.449 30.8646V32.3046C155.449 33.4886 155.705 34.4006 156.217 35.0406C156.745 35.6806 157.489 36.0006 158.449 36.0006C159.425 36.0006 160.169 35.6806 160.681 35.0406C161.193 34.4006 161.449 33.4886 161.449 32.3046V30.8646ZM173.305 27.3846C172.585 27.3846 171.881 27.5126 171.193 27.7686C170.521 28.0246 169.801 28.5126 169.033 29.2326V37.5366H167.065V25.6566H168.937V27.5766C169.753 26.7766 170.497 26.2166 171.169 25.8966C171.857 25.5766 172.569 25.4166 173.305 25.4166V27.3846ZM183.198 37.5366L179.862 32.0406C179.558 32.3446 179.238 32.6566 178.902 32.9766C178.566 33.2966 178.214 33.6166 177.846 33.9366V37.5366H175.878V19.7766H177.846V31.7286C178.886 30.7206 179.806 29.7366 180.606 28.7766C181.422 27.8166 182.166 26.7766 182.838 25.6566H185.094C184.518 26.6166 183.926 27.5046 183.318 28.3206C182.726 29.1206 182.054 29.9366 181.302 30.7686L185.574 37.5366H183.198ZM190.969 36.0246C192.569 36.0246 193.369 35.4806 193.369 34.3926C193.369 33.9286 193.225 33.5606 192.937 33.2886C192.649 33.0166 192.121 32.7846 191.353 32.5926L190.033 32.2566C189.057 32.0166 188.329 31.6006 187.849 31.0086C187.369 30.4006 187.129 29.6806 187.129 28.8486C187.129 28.2406 187.265 27.6806 187.537 27.1686C187.809 26.6406 188.241 26.2166 188.833 25.8966C189.425 25.5766 190.193 25.4166 191.137 25.4166C191.745 25.4166 192.361 25.4886 192.985 25.6326C193.625 25.7606 194.273 25.9846 194.929 26.3046L194.305 27.9606C193.137 27.4326 192.081 27.1686 191.137 27.1686C189.745 27.1686 189.049 27.6886 189.049 28.7286C189.049 29.1286 189.177 29.4726 189.433 29.7606C189.689 30.0486 190.169 30.2806 190.873 30.4566L192.193 30.7926C193.249 31.0486 194.025 31.4646 194.521 32.0406C195.017 32.6166 195.265 33.3606 195.265 34.2726C195.265 34.9286 195.121 35.5286 194.833 36.0726C194.561 36.6006 194.113 37.0166 193.489 37.3206C192.881 37.6246 192.057 37.7766 191.017 37.7766C190.329 37.7766 189.641 37.7046 188.953 37.5606C188.281 37.4166 187.585 37.1846 186.865 36.8646L187.393 35.2326C188.081 35.5046 188.705 35.7046 189.265 35.8326C189.825 35.9606 190.393 36.0246 190.969 36.0246Z" fill="black"/>
</g>
<defs>
<clipPath id="clip0_5_2219">
<rect width="219" height="60" fill="white" transform="translate(0 -1)"/>
</clipPath>
</defs>
</svg>
